<svg xmlns="http://www.w3.org/2000/svg" viewBox="0 0 430.37 957.86"><g id="Layer_4" data-name="Layer 4"><path d="M-258.87-396.59c22.65,58.61-9.62,121.52-26.94,150.18a152.17,152.17,0,0,0-.29-16.48,171.38,171.38,0,0,0-3.36-22.4C-291.69-295.06-300.31-322-318-346c-26.41-35.85-69.35-60.47-102.82-86-26-19.79-46.23-40.11-48.67-66.62-2.48-27,13.45-61.12,19.9-75,5.54-11.87,21.17-33.88,20.73-32.78-1.68,4.19-2.92,11.59-3.22,16.25-.92,14.19,5.93,37.35,50.71,75.81,36.67,31.49,68.23,49.49,91.59,72.38C-279.76-432.06-267.71-419.48-258.87-396.59Z" transform="translate(681.45 606.4)"/></g><g id="Layer_2" data-name="Layer 2"><path d="M-459.19,99c4-13.5,8.11-34.08,4.68-58C-460.27.84-484.25-25.49-554.59-93.93c-41.52-40.41-91.3-78.64-111.14-119.24-10.82-22.16-21.38-72.76-12.25-120.93,12.26-64.69,50.48-129.18,66.38-155.8,29.71-49.76,71.31-96.85,71.21-95.86-.08.74-32.45,46.6-36.55,84.45-.66,6.08-3.46,36,12.2,74.65,27.24,67.25,106.94,114.4,159,163.58,32.24,30.47,49.78,80.29,49.9,80.1,1.85-3,7.37-22.19,7.53-22.77.09-.3-20.33-47.81-40.27-66.79C-436.39-318-512.51-364.51-522-396.27c-17.07-57.2,38.12-122.23,38.23-121.3.55,4.55-2.65,18.07,1.06,34.85,8,36,40.34,53.36,68.53,74.22,29,21.48,86.85,54.85,102.8,111.34,11.44,40.51-2.3,86.26-29.19,159.32-20.87,56.68-49,105.53-52.87,103.9-1.75-.74,3-11.15,4-27.81,1.62-26.88-7.8-48-13.36-60.15-13.58-29.59-34.44-51.87-106.81-116.68-41.14-36.84-43.59-36.24-57.18-52.35-17.72-21-56.5-68.19-51.19-122.08,1.3-13.11,5.39-25.41,6.07-29.18.19-1-1.21,1-1.55,1.25-5.1,3.45-26,39.51-26.18,82,0,0-.09,22.44,7.65,45.09,33.29,97.42,202,148.44,218.64,256.56,6.8,44.12-5.56,79.48-5.58,79.55h0c-15.93,38.39-38.37,75.8-38.86,77a14.82,14.82,0,0,0-.53,1.46s-.14.43-.26.85c-2.73,9.68,7.79,24,7.79,24,6.85,9.35,23.15,33.15,19.28,53.38-1,5.08-2.1,11.57-8.68,21.74-10.28,15.91-15.8,17.36-17.43,25.75-.71,3.65,2.93,17.36,10.24,31,4.53,8.45,15.32,22.67,15.79,39.09.36,12.75-8.75,28.73-11.05,32.27-7,10.73-16,22.82-16.63,22.66s.4-8.08.25-11.06c-1-20.21-19.31-23.64-25.86-43.08-2-5.83-2.69-22.89,2.47-37,4.4-12,14.13-20.93,19.47-29.49,2.58-4.15,3.88-6.23,4-6.66,6.89-18.2-22.13-36.35-28-60.1a39.33,39.33,0,0,1-.87-13.4C-486.44,137.85-479.16,121-459.19,99Z" transform="translate(681.45 606.4)"/></g></svg>